
        <svg xmlns="http://www.w3.org/2000/svg" xmlns:xlink="http://www.w3.org/1999/xlink" version="1.1" width="3168.5393258426966" 
        height="1769.6629213483147" viewBox="0 0 3168.5393258426966 1769.6629213483147">
			
			<g transform="scale(8.426966292134832) translate(10, 10)">
				<defs id="SvgjsDefs1016"><linearGradient id="SvgjsLinearGradient1023"><stop id="SvgjsStop1024" stop-color="#2d388a" offset="0"></stop><stop id="SvgjsStop1025" stop-color="#00aeef" offset="1"></stop></linearGradient></defs><g id="SvgjsG1017" featureKey="symbolFeature-0" transform="matrix(1.1111126181540503,0,0,1.1111126181540503,-5.555576866084617,40.09932262328779)" fill="url(#SvgjsLinearGradient1023)"><path xmlns="http://www.w3.org/2000/svg" d="M92.667,37.9879l-2.2797-7.0149c-0.1488-0.4583-0.5756-0.7684-1.0578-0.7684H65.5981L58.3453,7.879  c-0.1488-0.4583-0.5756-0.7684-1.0578-0.7684h-7.3765h-7.3743c-0.4822,0-0.9091,0.3101-1.0579,0.7684l-7.3337,22.5689H10.6705  c-0.4822,0-0.909,0.3101-1.0578,0.7684l-2.2786,7.0148L5.0545,45.246c-0.1488,0.4583,0.0141,0.9601,0.404,1.2435l19.1984,13.9484  L17.403,82.7634c-0.1488,0.4583,0.0141,0.9601,0.404,1.2435l5.9668,4.335c0.0011,0.0008,0.0025,0.001,0.0036,0.0018l5.9633,4.3332  c0.1954,0.1417,0.4246,0.2123,0.6537,0.2123c0.2292,0,0.4584-0.0706,0.6538-0.2123l19.1985-13.9482l18.9906,13.7983  c0.1955,0.1417,0.4247,0.2123,0.6538,0.2123c0.2292,0,0.4583-0.0706,0.6538-0.2123l5.9679-4.3361l5.9669-4.335  c0.3899-0.2834,0.5528-0.7852,0.404-1.2435l-7.3336-22.5684l18.9913-13.7989c0.3899-0.2834,0.5528-0.7852,0.404-1.2435  L92.667,37.9879z M88.5215,32.4289l1.78,5.478l-5.9775,4.3427l-11.7761,8.5549l-0.3786-1.165l-1.1776-3.6251l9.3367-6.783  c0.3899-0.2835,0.5528-0.7852,0.404-1.2435c-0.1488-0.4584-0.5756-0.7684-1.0578-0.7684l-30.3823-0.0011l1.5562-4.7895h6.5662H64.79  H88.5215z M44.3438,45.246c-0.0005,0.0017,0.0001,0.0035-0.0004,0.0053l-2.3911,7.3598l-4.2834-3.1116l8.5549-26.3282l2.6467,8.1454  l-0.3297,1.015l-1.8381,5.6551L44.3438,45.246z M53.8686,46.7019l2.3669,7.2837l-6.1958,4.5015l-6.1957-4.501l2.3668-7.2841H53.8686  z M48.1476,59.8618l-4.2828,3.1116L21.4692,46.7019h8.5636L48.1476,59.8618z M44.5187,65.248l6.1753-4.486  c0.001-0.0007,0.0016-0.0017,0.0026-0.0024l6.2618-4.5493l1.6356,5.0349l-3.1498,2.2885l-19.2455,13.982l2.6458-8.1453  L44.5187,65.248z M56.207,46.7019h5.2942l8.554,26.3288l-6.9277-5.0349l-0.6911-2.1261L56.207,46.7019z M62.3094,44.4771h-7.6328  c-0.0016,0-0.003,0.0005-0.0045,0.0005h-7.7385l1.6359-5.035l27.6817,0.001l-6.9297,5.0339h-7.0087  C62.3116,44.4777,62.3105,44.4771,62.3094,44.4771z M56.4794,9.3349l6.7803,20.8698h-5.037L51.4418,9.3349H56.4794z   M36.0115,31.9037c0.0002-0.0007-0.0001-0.0013,0.0001-0.002l7.3329-22.5668h5.7582l6.7809,20.8698h-5.0354l-3.5667-10.9758  c-0.1488-0.4583-0.5756-0.7684-1.0579-0.7684c-0.4822,0-0.909,0.3101-1.0578,0.7684l-9.3893,28.8954l-4.0745-2.9597l2.0297-6.246  L36.0115,31.9037z M11.4785,32.6722h21.9438l-1.5567,4.7906H9.9222L11.4785,32.6722z M7.4199,45.1651L9.2,39.687h21.9429  l-1.5567,4.7906H18.046c-0.4822,0-0.9091,0.3101-1.0579,0.7684s0.0142,0.9601,0.4041,1.2435l24.5804,17.8586l-4.0748,2.9604  l-0.0032-0.0023l-5.3085-3.8578l-5.9679-4.335c-0.0002-0.0001-0.0003-0.0001-0.0004-0.0001L7.4199,45.1651z M19.7684,82.6826  l6.7803-20.8702l4.0757,2.9612l-6.7811,20.8691L19.7684,82.6826z M49.5927,76.454c-0.0007,0.0005-0.0012,0.0012-0.0018,0.0017  L30.3944,90.4022l-4.6581-3.3847l4.9995-15.3885l1.781-5.4806l2.0873,1.5164l1.9863,1.4436l-3.5655,10.9757  c-0.1488,0.4583,0.0141,0.9601,0.404,1.2435c0.391,0.2835,0.9166,0.2835,1.3076,0l24.5809-17.8584l1.5563,4.7893l-2.3778,1.7275  l-2.9338,2.131c-0.0008,0.0005-0.0018,0.0007-0.0025,0.0013L49.5927,76.454z M69.8912,90.2524L52.1389,77.3541l4.0747-2.9604  L73.967,87.2914L69.8912,90.2524z M80.5183,82.5316l-4.6589,3.3851l-17.7532-12.898l3.2647-2.3719l0.8104-0.5886l9.3358,6.7841  c0.391,0.2834,0.9166,0.2834,1.3076,0c0.3899-0.2834,0.5528-0.7852,0.404-1.2435l-9.3882-28.8968h5.0353L80.5183,82.5316z   M74.8273,57.8193l-1.5563-4.7905l5.9775-4.3427l11.7762-8.555l1.5552,4.7896L74.8273,57.8193z"></path></g><g id="SvgjsG1018" featureKey="textGroupContainer" transform="matrix(1,0,0,1,355,0)" fill="#2e3a87"><rect xmlns="http://www.w3.org/2000/svg" y="0" height="1" width="1" opacity="0"></rect><rect xmlns="http://www.w3.org/2000/svg" y="0" x="-235" width="3" height="190"></rect></g><g id="SvgjsG1019" featureKey="nameFeature-0" transform="matrix(3.284501540267889,0,0,3.284501540267889,134.64849603911873,11.808732012431904)" fill="#2e3a87"><path d="M6.6256 39.75238 c-0.24359 0.14078 -0.47196 0.21156 -0.70116 0.21156 s-0.45844 -0.070392 -0.70204 -0.21117 l-3.5008 -2.0236 c-0.4868 -0.2816 -0.7012 -0.6532 -0.7012 -1.2156 l0 -22.007 c0 -0.5624 0.21442 -0.934 0.7012 -1.2156 l3.6772 -2.1256 c0.15359 -0.092384 0.3332 -0.14559 0.5252 -0.14559 c0.5632 0 1.02 0.4568 1.02 1.02 c0 0.38398 -0.21238 0.7184 -0.52596 0.8924 l-3.358 1.9408 l0 21.273 l2.864 1.6556 l10.632 -6.1456 l0 -19.616 c0 -0.5632 0.4568 -1.02 1.02 -1.02 s1.02 0.4568 1.02 1.02 l0 19.984 c0 0.5624 -0.21442 0.934 -0.7016 1.2156 z M5.9248 35.5104 c-0.5632 0 -1.02 -0.4568 -1.02 -1.02 l0 -17.96 c0 -0.5632 0.4568 -1.02 1.02 -1.02 s1.02 0.4568 1.02 1.02 l0 17.96 c0 0.5632 -0.4568 1.02 -1.02 1.02 z M9.8088 33.2652 c-0.5632 0 -1.0208 -0.4576 -1.0208 -1.0208 c0 -0.38398 0.21238 -0.7184 0.52596 -0.8924 l3.358 -1.9408 l0 -15.126 c0 -0.5632 0.4568 -1.02 1.02 -1.02 s1.02 0.4568 1.02 1.02 l0 15.494 c0 0.5624 -0.21442 0.934 -0.7012 1.2156 l-3.6772 2.1256 c-0.1532 0.092384 -0.33281 0.14559 -0.5248 0.14559 z M21.639200000000002 40 c-0.6728 0 -1.0188 -0.59208 -1.0188 -1.0249 l0.0048048 -15.711 c0 -0.5632 0.4564 -1.02 1.0196 -1.02 s1.02 0.4568 1.02 1.02 l0 13.947 l2.3388 -1.352 c0.15359 -0.092384 0.3332 -0.14559 0.5252 -0.14559 c0.5632 0 1.02 0.4568 1.02 1.02 c0 0.38398 -0.21558 0.7132 -0.52596 0.89244 l-3.8716 2.2364 c-0.15559 0.089608 -0.33238 0.13723 -0.512 0.13723 z M25.5308 33.2644 c-0.5632 0 -1.02 -0.4568 -1.02 -1.02 l0 -11.225 c0 -0.5632 0.4568 -1.02 1.02 -1.02 s1.02 0.4568 1.02 1.02 l0 11.225 c0 0.5632 -0.4568 1.02 -1.02 1.02 z M21.6412 19.796 l0.0020312 0.0007422 c-0.6728 0 -1.0208 -0.5924 -1.0208 -1.0252 l0.0048048 -4.2644 c0.00078124 -0.5624 0.21438 -0.934 0.70116 -1.2156 l3.6772 -2.1256 c0.15359 -0.092384 0.3332 -0.14559 0.5252 -0.14559 c0.5632 0 1.02 0.4568 1.02 1.02 c0 0.38398 -0.21238 0.7184 -0.52596 0.8924 l-3.358 1.9408 l0 2.1336 l2.3388 -1.352 c0.15359 -0.092384 0.3332 -0.14559 0.5252 -0.14559 c0.5632 0 1.02 0.4568 1.02 1.02 c0 0.38398 -0.21558 0.7132 -0.52596 0.8928 l-3.8716 2.2364 c-0.15559 0.089608 -0.33238 0.13723 -0.512 0.13723 z M33.482800000000005 40 l0.006836 0.00039062 c-0.6728 0 -1.0208 -0.5924 -1.0208 -1.0252 l0.0048048 -4.2644 c0.00078124 -0.5624 0.21438 -0.934 0.70116 -1.2156 l3.6772 -2.1256 c0.15359 -0.092384 0.3332 -0.14559 0.5252 -0.14559 c0.5632 0 1.02 0.4568 1.02 1.02 c0 0.38398 -0.21238 0.7184 -0.52596 0.8924 l-3.358 1.9408 l0 2.1336 l5.7276 -3.3108 l0 -6.6236 l-6.2416 3.6064 c-0.15559 0.089608 -0.33238 0.13723 -0.512 0.13723 c-0.6728 0 -1.0208 -0.5924 -1.0208 -1.0252 l0.0048048 -12.877 l-1.844 -1.0656 l0 20.682 c0 0.5632 -0.4568 1.02 -1.02 1.02 s-1.0196 -0.4568 -1.0196 -1.02 l-0.0048048 -22.454 c0 -0.5504 0.4512 -1.0152 1.0192 -1.0152 c0.1732 0 0.3484 0.043984 0.50916 0.1368 l3.6972 2.1332 c0.4872 0.28121 0.7016 0.6532 0.7016 1.2156 l0 11.481 l6.232 -3.6044 c0.15559 -0.089608 0.33238 -0.13723 0.512 -0.13723 c0.5504 0 1.0184 0.452 1.0184 1.0196 l0.004414 8.758 c0 0.5624 -0.2148 0.934 -0.702 1.2112 l-7.58 4.384 c-0.15559 0.089608 -0.33238 0.13723 -0.512 0.13723 z M41.263000000000005 40.00039062 c-0.5632 0 -1.02 -0.45796 -1.02 -1.0212 c0 -0.38398 0.21238 -0.7184 0.52596 -0.8924 l3.358 -1.9408 l0 -12.293 l-3.358 -1.9408 c-0.31359 -0.17398 -0.52596 -0.5084 -0.52596 -0.8924 c0 -0.5632 0.4568 -1.02 1.02 -1.02 c0.19199 0 0.3716 0.053204 0.5248 0.14559 l3.6772 2.1256 c0.4868 0.2816 0.7012 0.6532 0.7012 1.2156 l0 13.027 c0 0.5624 -0.21442 0.934 -0.7012 1.2156 l-3.6772 2.1256 c-0.1532 0.092384 -0.33281 0.14559 -0.5248 0.14559 z M37.379200000000004 24.284 c-0.5632 0 -1.02 -0.4572 -1.02 -1.0204 l0 -8.3916 l-3.358 -1.9408 c-0.31359 -0.17398 -0.52596 -0.5084 -0.52596 -0.8924 c0 -0.5632 0.4568 -1.02 1.02 -1.02 c0.19199 0 0.3716 0.053204 0.5252 0.14559 l3.6772 2.1256 c0.4872 0.2816 0.7016 0.6532 0.7016 1.2156 l0 8.7584 c0 0.5632 -0.4568 1.02 -1.02 1.02 z M53.124 39.963594 c-0.22922 0 -0.4576 -0.069608 -0.70116 -0.21039 l-3.5008 -2.0236 c-0.4868 -0.2816 -0.7012 -0.6532 -0.7012 -1.2156 l0 -13.027 c0 -0.5624 0.21442 -0.934 0.7012 -1.2156 l3.6772 -2.1256 c0.15359 -0.092384 0.3332 -0.14559 0.5252 -0.14559 c0.5632 0 1.02 0.4568 1.02 1.02 c0 0.38398 -0.21238 0.7184 -0.52596 0.8924 l-3.358 1.9408 l0 12.293 l2.864 1.6556 l6.7476 -3.9004 l0 -3.9016 c0 -0.5632 0.4568 -1.02 1.02 -1.02 s1.02 0.4568 1.02 1.02 l0 4.2684 c0 0.5624 -0.21442 0.934 -0.7016 1.2116 l-7.3844 4.2724 c-0.24359 0.14078 -0.4728 0.21117 -0.70204 0.21117 z M53.119200000000006 35.5116 l0.0024609 -0.00042968 c-0.6728 0 -1.0208 -0.5924 -1.0208 -1.0252 l0.0048048 -8.7544 c0 -0.5624 0.21398 -0.934 0.70116 -1.2156 l7.5708 -4.378 c0.15559 -0.089608 0.33238 -0.13723 0.512 -0.13723 c0.5504 0 1.0184 0.452 1.0184 1.0196 l0.004414 4.268 c0.00039062 0.5624 -0.2148 0.934 -0.702 1.2156 l-3.6772 2.1256 c-0.1532 0.092384 -0.33281 0.14559 -0.5248 0.14559 c-0.5632 0 -1.02 -0.4568 -1.02 -1.02 c0 -0.38398 0.21238 -0.7184 0.52596 -0.8924 l3.358 -1.9408 l0 -2.1336 l-5.7276 3.3108 l0 6.6236 l2.3388 -1.352 c0.15359 -0.092384 0.3332 -0.14559 0.5252 -0.14559 c0.5632 0 1.02 0.4568 1.02 1.02 c0 0.38398 -0.2152 0.7132 -0.52596 0.8928 l-3.8716 2.2364 c-0.15559 0.089608 -0.33238 0.13723 -0.512 0.13723 z"></path></g>
			</g>
		</svg>
	