<svg viewBox="0 0 512 512" xmlns="http://www.w3.org/2000/svg" fill-rule="evenodd" clip-rule="evenodd"
     stroke-linejoin="round" stroke-miterlimit="1.414">
    <path xmlns="http://www.w3.org/2000/svg" d="M92.667 37.988l-2.28-7.015a1.112 1.112 0 00-1.058-.768H65.6L58.344 7.879a1.112 1.112 0 00-1.057-.768H42.537c-.482 0-.91.31-1.058.768l-7.334 22.569H10.67c-.482 0-.908.31-1.057.768l-2.279 7.015-2.28 7.015c-.148.458.015.96.404 1.244l19.199 13.948-7.254 22.325c-.149.459.014.96.404 1.244l5.967 4.335s.002 0 .003.002l5.964 4.333a1.112 1.112 0 001.307 0l19.199-13.948 18.99 13.798a1.112 1.112 0 001.308 0l5.968-4.336 5.967-4.335c.39-.283.553-.785.404-1.244L75.55 60.044l18.991-13.799c.39-.283.553-.785.404-1.243l-2.278-7.014zm-4.145-5.56l1.78 5.479-5.978 4.343-11.776 8.555-.379-1.165-1.177-3.626 9.336-6.783a1.112 1.112 0 00-.653-2.011l-30.383-.002 1.556-4.79h37.673zM44.344 45.247v.005l-2.392 7.36L37.67 49.5l8.555-26.329 2.647 8.146-.33 1.015-1.838 5.655-2.36 7.259zm9.525 1.456l2.367 7.284-6.196 4.501-6.196-4.5 2.367-7.285h7.658zm-5.721 13.16l-4.283 3.111-22.396-16.271h8.564l18.115 13.16zm-3.63 5.386l6.176-4.486.003-.002 6.261-4.55 1.636 5.035-3.15 2.289L36.2 77.516l2.646-8.146 5.674-4.122zm11.689-18.546h5.294l8.554 26.329-6.928-5.035-.69-2.126-6.23-19.168zm6.102-2.225H46.934l1.635-5.034h27.682l-6.93 5.034H62.31zM56.48 9.335l6.78 20.87h-5.036l-6.781-20.87h5.037zM36.011 31.904v-.002l7.333-22.567h5.759l6.78 20.87h-5.035l-3.566-10.976a1.112 1.112 0 00-2.116 0l-9.39 28.895-4.074-2.96 2.03-6.245 2.28-7.015zm-24.533.768h21.944l-1.556 4.79H9.922l1.556-4.79zM7.42 45.165l1.78-5.478h21.943l-1.557 4.79h-11.54a1.112 1.112 0 00-.654 2.012l24.58 17.86-4.074 2.96-.003-.003-5.309-3.858-5.968-4.335L7.42 45.165zm12.348 37.518l6.78-20.87 4.076 2.96-6.78 20.87-4.076-2.96zm29.825-6.229l-.002.002-19.197 13.946-4.658-3.385 5-15.388 1.78-5.48 2.088 1.516 1.986 1.443-3.565 10.976a1.112 1.112 0 001.712 1.244l24.58-17.859 1.557 4.79-2.378 1.727-2.934 2.131-.002.001-5.967 4.336zM69.89 90.252L52.14 77.354l4.075-2.96L73.967 87.29l-4.076 2.961zm10.627-7.72l-4.659 3.385-17.753-12.898 3.265-2.372.81-.589 9.336 6.784A1.112 1.112 0 0073.23 75.6L63.84 46.702h5.036l11.642 35.83zm-5.69-24.713l-1.557-4.79 5.978-4.343 11.776-8.555 1.555 4.79-17.753 12.898z" transform="translate(-23 -30) scale(5.5)"  fill="url(#a)"/>
    <defs>
        <linearGradient id="a">
            <stop stop-color="#2d388a" offset="0"/>
            <stop stop-color="#00aeef" offset="1"/>
        </linearGradient>
    </defs>
</svg>